<?xml version="1.0" encoding="utf-8"?>
<!-- Generator: Adobe Illustrator 15.1.0, SVG Export Plug-In . SVG Version: 6.00 Build 0)  -->
<!DOCTYPE svg PUBLIC "-//W3C//DTD SVG 1.1//EN" "http://www.w3.org/Graphics/SVG/1.1/DTD/svg11.dtd">
<svg version="1.1" id="Layer_1" xmlns="http://www.w3.org/2000/svg" xmlns:xlink="http://www.w3.org/1999/xlink" x="0px" y="0px"
	 width="100px" height="380.274px" viewBox="0 0 100 380.274" enable-background="new 0 0 100 380.274" xml:space="preserve">
<path fill="#c8f6f9" d="M69.041,99.374V30.439c1.067-0.917,1.758-2.26,1.758-3.778V13.378c0-1.518-0.69-2.861-1.758-3.778V5
	c0-2.761-4.478-5-10-5H40.959c-5.523,0-10,2.239-10,5v4.6c-1.067,0.917-1.758,2.26-1.758,3.778v13.283
	c0,1.518,0.69,2.861,1.758,3.778v68.935C13.097,104.411,0,120.815,0,140.29v5.062v14.899v220.023h100V160.25v-14.899v-5.062
	C100,120.816,86.903,104.412,69.041,99.374z"/>
</svg>
