<?xml version="1.0" encoding="utf-8"?>
<!DOCTYPE svg PUBLIC "-//W3C//DTD SVG 1.1//EN" "http://www.w3.org/Graphics/SVG/1.1/DTD/svg11.dtd">
<svg version="1.1" id="svg2" xmlns:svg="http://www.w3.org/2000/svg"
	 xmlns="http://www.w3.org/2000/svg" xmlns:xlink="http://www.w3.org/1999/xlink" x="0px" y="0px" viewBox="-10.69 13 828.634 133.469" enable-background="new -10.69 13 828.634 133.469" xml:space="preserve">
<path fill="#ffde5c" d="M771.469,34.734H315.555v16h105.653v69.601H317.215v16h454.254c25.626,0,46.475-20.849,46.475-46.475v-8.651
	C817.944,55.583,797.095,34.734,771.469,34.734z M801.944,89.86c0,16.804-13.671,30.475-30.475,30.475H433.222V50.734h338.247
	c16.804,0,30.475,13.671,30.475,30.475V89.86z"/>
<path fill="#ffde5c" d="M560.691,87.734v-16v-9.5V13c-15.226,38.655-89.994,54.247-188.469,57.869V50.734h17.438
	c0.586,3.468,3.596,6.111,7.229,6.111c4.054,0,7.341-3.287,7.341-7.341V36.187c0-4.054-3.287-7.341-7.341-7.341
	c-3.557,0-6.521,2.53-7.195,5.889h-74.527c-1.998-3.56-5.266-5.889-8.968-5.889h-9.442c-0.913-2.155-3.046-3.667-5.534-3.667
	c-3.318,0-6.007,2.689-6.007,6.007v23.319c0,3.317,2.689,6.007,6.007,6.007c2.487,0,4.621-1.512,5.534-3.667h9.442
	c3.781,0,7.115-2.423,9.099-6.111h44.91v20.513c-12.386,0.33-25.107,0.487-38.104,0.487H19.154
	c-16.456,0-29.844,13.388-29.844,29.844v4.912c0,16.456,13.388,29.845,29.844,29.845h370.522c0.631,3.413,3.617,6,7.212,6
	c4.054,0,7.341-3.287,7.341-7.341v-13.318c0-4.054-3.287-7.341-7.341-7.341c-3.595,0-6.582,2.587-7.212,6h-17.455V88.6
	c98.476,3.622,173.243,19.214,188.47,57.869L560.691,87.734L560.691,87.734z M142.208,120.335H19.154
	c-7.634,0-13.844-6.211-13.844-13.845v-4.912c0-7.634,6.21-13.844,13.844-13.844h123.054V120.335z M279.208,120.335H154.222V87.734
	h124.986V120.335z M360.208,120.335h-68.986V87.734h30.882c12.997,0,25.718,0.156,38.104,0.487V120.335z"/>
</svg>
