<?xml version="1.0" encoding="utf-8"?>
<svg version="1.1" id="logo_b" xmlns="http://www.w3.org/2000/svg" xmlns:xlink="http://www.w3.org/1999/xlink" x="0px" y="0px"
	 viewBox="16.148 18.681 68.287 57.225" enable-background="new 16.148 18.681 68.287 57.225"
	 xml:space="preserve">
<path fill="#1D1D1B" d="M23.051,71.022c12.23,3.141,19.438-7.703,21.715-11.937c0.249-0.457,0.578-1.113,0.979-1.925
	c2.051,1.384,3.554,2.923,6.266,5.604c3.157,3.125,9.569,8.642,11.996,9.873c2.421,1.23,4.851,2.102,8.165,2.102
	c7.373,0,10.467-6.088,10.467-6.088s-3.069,4.102-8.681,4.102c-4.256,0-9.792-4.341-13.906-8.143
	c-4.89-4.528-5.383-5.162-8.322-7.355c-1.559-1.169-3.229-2.097-4.669-2.794c3.094-6.388,8.179-17.086,12.253-24.229
	c1.218,0.155,2.386,0.43,3.455,0.874c5.93,2.438,8.147,7.809,6.225,11.675c-1.93,3.872-4.967,6.233-9.188,7.452
	c-4.223,1.22-8.742,1.432-8.742,1.432s4.316,3.282,7.037,5.732c2.511,2.26,7.199,6.152,9.03,7.611
	c4.13,3.305,9.309,2.339,11.866,1.133c3.852-1.822,4.882-5.648,3.401-8.511c-1.481-2.866-4.291-2.811-5.778-2.237
	c-2.147,0.834-1.924,2.795-1.924,2.795s3.179-0.676,4.649,1.18c1.041,1.311,0.987,3.474-0.427,4.696
	c-1.196,1.028-4.667,2.432-9.334-1.648c-4.664-4.085-6.924-6.144-9.041-7.738C57.877,52.673,55.73,52.1,55.73,52.1
	s5.182-0.148,10.521-2.579c5.333-2.438,9.185-6.091,8.743-12.108c-0.448-6.02-6.298-8.383-14.596-8.958c-0.021,0-0.034,0-0.048,0
	c0.547-0.917,1.074-1.744,1.558-2.464c5.369-7.948,8.491-3.194,8.491-3.194s-0.244-2.066-3.568-2.829
	c-3.792-0.869-7.382,3.035-10.695,8.447c-6.398,0.323-11.845,2.435-16.783,5.916c-6,4.23-6.742,8.311-4.521,10.243
	c2.226,1.938,6.372,0.073,6.372,0.073s-3.109-1.789-2.517-4.729c0.455-2.246,1.925-4.583,5.553-6.734
	c2.25-1.329,6.533-2.736,10.877-3.047c-0.333,0.58-0.657,1.172-0.987,1.77C50.28,39.02,43.43,52.962,43.43,52.962
	s-4.232-1.264-9.263-0.801c-5.49,0.501-9.896,3.011-11.636,4.377c-2.171,1.716-5.561,5.561-4.91,9.405
	C17.965,67.985,19.496,70.113,23.051,71.022z M29.873,54.391c7.784-2.715,12.568,0.6,12.568,0.6s-0.639,1.606-2.554,5.305
	c-1.914,3.705-4.468,7.408-7.784,8.516c-3.316,1.11-7.564,1.01-9.056-2.835C21.594,62.233,23.735,56.528,29.873,54.391z"/>
</svg>
