<?xml version="1.0" encoding="utf-8"?>
<svg version="1.1" xmlns="http://www.w3.org/2000/svg" xmlns:xlink="http://www.w3.org/1999/xlink" width="100%" height="100%" viewBox="0 0 24 24" enable-background="new 0 0 24 24" preserveAspectRatio="xMidYMid slice" xml:space="preserve">
<g>
	<path fill="#CCCCCC" d="M8.149,23.75c0,0.138,0.112,0.25,0.25,0.25h6.518c0.138,0,0.25-0.112,0.25-0.25V10.88
		c0-1.921-1.634-2.821-2.168-3.063V3.025c0.314-0.476,0.09-0.885-0.082-1.041C12.87,1.943,12.811,1.92,12.749,1.92h-0.082V0.716
		c0-0.138-0.112-0.25-0.25-0.25h-1.518c-0.138,0-0.25,0.112-0.25,0.25V1.92h-0.082c-0.062,0-0.121,0.023-0.168,0.064
		c-0.172,0.155-0.396,0.564-0.082,1.041v4.792C9.783,8.059,8.149,8.959,8.149,10.88V23.75z M11.149,0.966h1.018V1.92h-1.018V0.966z
		 M10.688,2.42h1.941c0.028,0.057,0.043,0.151-0.02,0.275h-1.889C10.663,2.576,10.658,2.479,10.688,2.42z M12.499,3.195v3.806
		h-1.682V3.195H12.499z M8.649,10.88c0-1.895,1.923-2.632,2.005-2.663c0.098-0.036,0.163-0.13,0.163-0.234V7.501h1.682v0.481
		c0,0.105,0.065,0.198,0.163,0.234c0.021,0.008,2.005,0.761,2.005,2.663V23.5H8.649V10.88z"/>
	<path fill="#CCCCCC" d="M9.274,10.337c0.098,0,0.19-0.058,0.23-0.154c0.371-0.893,1.363-1.277,1.405-1.293
		c0.129-0.049,0.193-0.193,0.145-0.323c-0.048-0.129-0.193-0.194-0.322-0.145c-0.05,0.019-1.236,0.479-1.688,1.568
		c-0.054,0.128,0.007,0.274,0.135,0.327C9.21,10.331,9.242,10.337,9.274,10.337z"/>
	<path fill="#CCCCCC" d="M9.12,17.094c-0.138,0-0.25,0.112-0.25,0.25v3.588c0,0.138,0.112,0.25,0.25,0.25s0.25-0.112,0.25-0.25
		v-3.588C9.37,17.206,9.258,17.094,9.12,17.094z"/>
	<path fill="#CCCCCC" d="M14.208,10.602H9.146c-0.138,0-0.25,0.112-0.25,0.25v5.04c0,0.138,0.112,0.25,0.25,0.25h5.062
		c0.138,0,0.25-0.112,0.25-0.25v-5.04C14.458,10.713,14.346,10.602,14.208,10.602z M13.958,15.642H9.396v-4.54h4.562V15.642z"/>
</g>
</svg>
