<?xml version="1.0" encoding="utf-8"?>
<!-- Generator: Adobe Illustrator 15.1.0, SVG Export Plug-In . SVG Version: 6.00 Build 0)  -->
<!DOCTYPE svg PUBLIC "-//W3C//DTD SVG 1.1//EN" "http://www.w3.org/Graphics/SVG/1.1/DTD/svg11.dtd">
<svg version="1.1" id="Layer_1" xmlns="http://www.w3.org/2000/svg" xmlns:xlink="http://www.w3.org/1999/xlink" x="0px" y="0px"
	 width="7.018px" height="23.534px" viewBox="0 0 7.018 23.534" enable-background="new 0 0 7.018 23.534" xml:space="preserve">
<g>
	<path fill="#CCCCCC" d="M0,23.284c0,0.138,0.112,0.25,0.25,0.25h6.518c0.138,0,0.25-0.112,0.25-0.25v-12.87
		c0-1.921-1.634-2.821-2.168-3.063V2.559c0.314-0.476,0.09-0.885-0.082-1.041C4.721,1.477,4.661,1.454,4.6,1.454H4.518V0.25
		C4.518,0.112,4.405,0,4.268,0H2.75C2.612,0,2.5,0.112,2.5,0.25v1.204H2.418c-0.062,0-0.121,0.023-0.168,0.064
		C2.078,1.674,1.854,2.083,2.168,2.559v4.792C1.634,7.593,0,8.493,0,10.414V23.284z M3,0.5h1.018v0.954H3V0.5z M2.538,1.954h1.941
		c0.028,0.057,0.043,0.151-0.02,0.275H2.571C2.514,2.11,2.509,2.013,2.538,1.954z M4.35,2.729v3.806H2.668V2.729H4.35z M0.5,10.414
		c0-1.895,1.923-2.632,2.005-2.663c0.098-0.036,0.163-0.13,0.163-0.234V7.035H4.35v0.481c0,0.105,0.065,0.198,0.163,0.234
		c0.021,0.008,2.005,0.761,2.005,2.663v12.62H0.5V10.414z"/>
	<path fill="#CCCCCC" d="M1.125,9.871c0.098,0,0.19-0.058,0.23-0.154C1.727,8.825,2.719,8.44,2.761,8.424
		C2.89,8.375,2.954,8.231,2.905,8.102C2.857,7.972,2.712,7.908,2.583,7.957c-0.05,0.019-1.236,0.479-1.688,1.568
		C0.841,9.653,0.901,9.799,1.029,9.852C1.061,9.865,1.093,9.871,1.125,9.871z"/>
	<path fill="#CCCCCC" d="M0.971,16.628c-0.138,0-0.25,0.112-0.25,0.25v3.588c0,0.138,0.112,0.25,0.25,0.25s0.25-0.112,0.25-0.25
		v-3.588C1.221,16.74,1.108,16.628,0.971,16.628z"/>
	<path fill="#CCCCCC" d="M6.059,10.136H0.996c-0.138,0-0.25,0.112-0.25,0.25v5.04c0,0.138,0.112,0.25,0.25,0.25h5.062
		c0.138,0,0.25-0.112,0.25-0.25v-5.04C6.309,10.248,6.196,10.136,6.059,10.136z M5.809,15.176H1.246v-4.54h4.562V15.176z"/>
</g>
</svg>
