<?xml version="1.0" encoding="utf-8"?>
<!-- Generator: Adobe Illustrator 15.1.0, SVG Export Plug-In . SVG Version: 6.00 Build 0)  -->
<!DOCTYPE svg PUBLIC "-//W3C//DTD SVG 1.1//EN" "http://www.w3.org/Graphics/SVG/1.1/DTD/svg11.dtd">
<svg version="1.1" id="Layer_1" xmlns="http://www.w3.org/2000/svg" xmlns:xlink="http://www.w3.org/1999/xlink" x="0px" y="0px"
	 width="100px" height="100px" viewBox="0 0 100 100" enable-background="new 0 0 100 100" xml:space="preserve">
<path display="none" fill="#B3B3B3" d="M59.62,34.204l1.433-10.388h13.219v-4.148H57.435l-2.004,14.537H25.688l8.299,65.009h32.733
	l8.299-65.009H59.62z M31.179,39.108h23.576l-3.362,24.376h-17.1L31.179,39.108z M66.412,63.484H55.586l3.358-24.376h10.58
	L66.412,63.484z"/>
<path display="none" d="M45.314,10.869c0.036,6.301,0.018,23.837-0.181,24.387c-0.316,0.877-0.583,2.011-1.243,2.557
	c-1.583,1.316-5.723,4.433-5.723,9.645v51.541h3.254h17.157h3.254V47.458c0-5.212-4.141-8.329-5.723-9.645
	c-0.658-0.546-0.926-1.68-1.242-2.557c-0.198-0.55-0.217-18.086-0.181-24.387H45.314z"/>
<rect x="8.648" y="93.203" display="none" width="84" height="4.733"/>
<path display="none" d="M56.128,56.745c0.01-0.133,0.021-0.265,0.021-0.399c0-3.039-2.463-5.503-5.5-5.503
	c-3.038,0-5.5,2.464-5.5,5.503c0,0.135,0.011,0.267,0.02,0.399c-18.311,2.656-32.379,18.411-32.379,37.459h75.719
	C88.508,75.156,74.439,59.401,56.128,56.745z"/>
<g>
	<path fill-rule="evenodd" clip-rule="evenodd" d="M61.955,97.029c0,0.336,0.553,0.935,1.046,0.935h18.211
		c0.493,0,1.046-0.599,1.046-0.935c0-0.316,0.051-0.233,0.247-0.415H61.708C61.903,96.796,61.955,96.713,61.955,97.029z"/>
	<path fill-rule="evenodd" clip-rule="evenodd" d="M75.289,47.422V45.11c0-0.227-0.15-0.683-0.895-0.683h-4.577
		c-0.743,0-0.893,0.456-0.893,0.683v2.312c0,0.214-0.11,0.329-0.176,0.376h6.715C75.397,47.75,75.289,47.636,75.289,47.422z"/>
	<rect x="68.7" y="47.522" fill-rule="evenodd" clip-rule="evenodd" width="6.812" height="2.518"/>
	<path fill-rule="evenodd" clip-rule="evenodd" d="M68.707,49.764c0.014,0.051,0.053,0.157,0.16,0.266
		c0.134,0.134,0.14,0.623-0.055,0.859h6.589c-0.196-0.236-0.19-0.725-0.057-0.859c0.107-0.108,0.147-0.215,0.16-0.266H68.707z"/>
	<path fill-rule="evenodd" clip-rule="evenodd" d="M68.764,51.352h6.685c0.068-0.142,0.08-0.591,0.001-0.739h-6.687
		C68.685,50.76,68.695,51.21,68.764,51.352z"/>
	<path fill-rule="evenodd" clip-rule="evenodd" d="M82.856,72.811c-0.11-1.032-0.132-3.512-3.016-5.852
		c-2.884-2.342-3.294-2.632-3.284-4.812c0.011-2.3,0.707-2.522-0.196-5.949c-0.689-2.617-1.07-4.804-0.95-5.123h-6.607
		c0.119,0.319-0.261,2.506-0.95,5.123c-0.904,3.427-0.208,3.649-0.197,5.949c0.01,2.18-0.399,2.47-3.283,4.812
		c-2.885,2.34-2.904,4.819-3.016,5.852c-0.11,1.014,0.307,23.12,0.32,24.079h20.859C82.549,95.931,82.966,73.824,82.856,72.811z"/>
</g>
<path d="M35.742,77.827c0.182-0.573,0.835-4.568-1.775-7.805c-2.052-2.545-1.984-2.09-1.984-3.969c0-1.88-0.026-5.43-0.679-6.526
	c-0.359-0.604-0.554-1.294-0.656-1.911c0.299-0.147,0.756-0.373,1.087-0.544c0.117,0.092,0.213,0.04,0.417,0.04
	c0.052,0.222-0.162,0.726,0.229,0.816c0.391,0.089,0.438-1.026,0.55-1.339c0.527-0.28,0.243-2.499,0.123-3.784
	c-0.12-1.287-0.747-4.302-1.157-4.853c-0.323-0.432-1.116-0.51-1.562-0.517c-0.022-0.36-0.208-0.646-0.178-0.806
	c0.037-0.196,0.131-0.418-0.261-0.443c-0.391-0.026-4.049-0.026-4.44,0c-0.392,0.025-0.298,0.248-0.261,0.443
	c0.03,0.16-0.156,0.445-0.178,0.806c-0.446,0.007-1.24,0.085-1.562,0.517c-0.411,0.551-1.038,3.565-1.158,4.853
	c-0.12,1.285-0.405,3.504,0.123,3.784c0.112,0.312,0.159,1.428,0.549,1.339c0.391-0.091,0.177-0.595,0.229-0.816
	c0.205,0,0.301,0.052,0.418-0.04c0.332,0.171,0.788,0.396,1.087,0.544c-0.103,0.617-0.296,1.307-0.656,1.911
	c-0.653,1.097-0.679,4.646-0.679,6.526c0,1.879,0.068,1.424-1.984,3.969c-2.61,3.236-1.958,7.231-1.775,7.805
	c0.183,0.575-0.025,12.896,0.014,14.071c0.026,1.176,0.146,6.058,2.541,6.058c0.729,0,2.936,0.016,5.514,0.003
	c2.578,0.013,4.786-0.003,5.514-0.003c2.396,0,2.515-4.882,2.555-6.058C35.767,90.724,35.559,78.402,35.742,77.827z M22.646,55.797
	c-0.006,0.027-0.055,0.115-0.072,0.049c-0.024-0.654,0.062-3.898,0.643-5.897c0.539-1.856,0.63-1.817,1.035-1.909
	c0.205-0.046,0.397-0.074,0.559-0.09h5.725c0.161,0.016,0.354,0.044,0.559,0.09c0.405,0.092,0.497,0.053,1.035,1.909
	c0.58,1.999,0.667,5.243,0.643,5.897c-0.017,0.066-0.065-0.021-0.072-0.049c-0.039-0.42-0.157-1.831-0.692-2.247
	c-0.297-0.232-0.77-0.298-1.067-0.315c-0.03-0.486-0.053-0.944-0.056-1.278c-0.009-1.125,0.047-2.967-0.528-3.271h-5.368
	c-0.576,0.305-0.52,2.147-0.529,3.271c-0.002,0.334-0.025,0.792-0.055,1.278c-0.297,0.018-0.77,0.083-1.067,0.315
	C22.803,53.966,22.686,55.377,22.646,55.797z M30.545,55.889h-5.743c0.006,0.12,0.027,0.575-0.03,1.173
	c-0.217-0.106-0.492-0.246-0.689-0.369c0.078-0.259,0.013-0.363-0.274-0.285c-0.169-0.196-0.542-0.543-0.691-0.483
	c0.01-0.373,0.055-1.832,0.574-2.074c0.246-0.116,0.496-0.136,0.682-0.125c-0.069,0.991-0.152,1.962-0.148,2.113h6.898
	c0.003-0.151-0.08-1.122-0.148-2.113c0.186-0.011,0.436,0.009,0.682,0.125c0.52,0.242,0.564,1.701,0.574,2.074
	c-0.15-0.06-0.522,0.287-0.691,0.483c-0.288-0.078-0.353,0.026-0.274,0.285c-0.197,0.123-0.472,0.263-0.689,0.369
	C30.517,56.464,30.539,56.009,30.545,55.889z M30.332,48.635l0.464-0.35c-0.055-0.097-0.13-0.198-0.212-0.286h-5.821
	c-0.081,0.089-0.157,0.192-0.211,0.29l0.463,0.347H30.332z"/>
<path d="M58.31,60.507c-0.021-1.085-0.14-1.521-0.663-1.681c-0.368-0.112-5.011-1.562-5.357-1.827
	c-0.34-0.259-0.71-0.863-0.775-1.565c-0.05-0.522-0.392-6.676-0.231-7.161h-5.325c0.16,0.485-0.181,6.639-0.231,7.161
	c-0.066,0.702-0.436,1.307-0.775,1.565c-0.347,0.265-4.987,1.715-5.355,1.827c-0.523,0.159-0.641,0.596-0.663,1.681
	c-0.012,0.591,0.357,31.792,0.357,33.557c0,1.763,0.692,2.744,1.264,3.145c0.685,0.479,2.76,0.756,3.778,0.756h8.576
	c1.018,0,3.095-0.277,3.778-0.756c0.574-0.4,1.266-1.382,1.266-3.145C57.952,92.299,58.322,61.098,58.31,60.507z M45.626,44.945
	c-0.033,0-0.042,0.066-0.044,0.108h6.075c-0.002-0.042-0.011-0.108-0.044-0.108c-0.166,0-0.172-0.234-0.09-0.319h-5.806
	C45.799,44.711,45.792,44.945,45.626,44.945z M51.517,45.113h-4.598l4.589,0.264C51.567,45.317,51.57,45.179,51.517,45.113z
	 M51.368,45.693c-0.053-0.067-0.05-0.206,0.012-0.264l-5.5-0.316h-0.042c0.055,0.066,0.051,0.208-0.01,0.266L51.368,45.693z
	 M51.511,45.762l-5.81-0.331c-0.061,0.06-0.063,0.204-0.005,0.269l5.813,0.332C51.57,45.971,51.57,45.825,51.511,45.762z
	 M50.45,46.032l-4.611-0.264c0.055,0.066,0.052,0.206-0.007,0.264H50.45z M45.564,48.076c0.012,0.086,0.037,0.121,0.074,0.137h5.964
	c0.036-0.016,0.062-0.051,0.073-0.137c0.034-0.238-0.001-1.343-0.001-1.787c0-0.076-0.029-0.141-0.084-0.197h-5.941
	c-0.054,0.056-0.084,0.122-0.084,0.197C45.565,46.732,45.53,47.837,45.564,48.076z M51.655,44.566
	c0.068-0.079,0.045-0.298,0.045-0.413c0-0.143-0.011-0.315-0.211-0.315h-5.738c-0.201,0-0.211,0.172-0.211,0.315
	c0,0.115-0.024,0.334,0.045,0.413H51.655z M51.484,43.975c0-0.04,0.06-0.04,0.06,0v0.441c0,0.039-0.06,0.039-0.06,0V43.975z
	 M51.298,43.975c0-0.04,0.06-0.04,0.06,0v0.441c0,0.039-0.06,0.039-0.06,0V43.975z M51.111,43.975c0-0.04,0.06-0.04,0.06,0v0.441
	c0,0.039-0.06,0.039-0.06,0V43.975z M50.924,43.975c0-0.04,0.059-0.04,0.059,0v0.441c0,0.039-0.059,0.039-0.059,0V43.975z
	 M50.737,43.975c0-0.04,0.06-0.04,0.06,0v0.441c0,0.039-0.06,0.039-0.06,0V43.975z M50.551,43.975c0-0.04,0.06-0.04,0.06,0v0.441
	c0,0.039-0.06,0.039-0.06,0V43.975z M50.364,43.975c0-0.04,0.06-0.04,0.06,0v0.441c0,0.039-0.06,0.039-0.06,0V43.975z
	 M50.177,43.975c0-0.04,0.06-0.04,0.06,0v0.441c0,0.039-0.06,0.039-0.06,0V43.975z M49.99,43.975c0-0.04,0.06-0.04,0.06,0v0.441
	c0,0.039-0.06,0.039-0.06,0V43.975z M49.804,43.975c0-0.04,0.06-0.04,0.06,0v0.441c0,0.039-0.06,0.039-0.06,0V43.975z
	 M49.617,43.975c0-0.04,0.06-0.04,0.06,0v0.441c0,0.039-0.06,0.039-0.06,0V43.975z M49.431,43.975c0-0.04,0.06-0.04,0.06,0v0.441
	c0,0.039-0.06,0.039-0.06,0V43.975z M49.243,43.975c0-0.04,0.061-0.04,0.061,0v0.441c0,0.039-0.061,0.039-0.061,0V43.975z
	 M49.057,43.975c0-0.04,0.06-0.04,0.06,0v0.441c0,0.039-0.06,0.039-0.06,0V43.975z M48.87,43.975c0-0.04,0.06-0.04,0.06,0v0.441
	c0,0.039-0.06,0.039-0.06,0V43.975z M48.684,43.975c0-0.04,0.06-0.04,0.06,0v0.441c0,0.039-0.06,0.039-0.06,0V43.975z
	 M48.497,43.975c0-0.04,0.06-0.04,0.06,0v0.441c0,0.039-0.06,0.039-0.06,0V43.975z M48.31,43.975c0-0.04,0.06-0.04,0.06,0v0.441
	c0,0.039-0.06,0.039-0.06,0V43.975z M48.124,43.975c0-0.04,0.06-0.04,0.06,0v0.441c0,0.039-0.06,0.039-0.06,0V43.975z
	 M47.937,43.975c0-0.04,0.06-0.04,0.06,0v0.441c0,0.039-0.06,0.039-0.06,0V43.975z M47.75,43.975c0-0.04,0.06-0.04,0.06,0v0.441
	c0,0.039-0.06,0.039-0.06,0V43.975z M47.563,43.975c0-0.04,0.06-0.04,0.06,0v0.441c0,0.039-0.06,0.039-0.06,0V43.975z
	 M47.376,43.975c0-0.04,0.06-0.04,0.06,0v0.441c0,0.039-0.06,0.039-0.06,0V43.975z M47.19,43.975c0-0.04,0.06-0.04,0.06,0v0.441
	c0,0.039-0.06,0.039-0.06,0V43.975z M47.003,43.975c0-0.04,0.06-0.04,0.06,0v0.441c0,0.039-0.06,0.039-0.06,0V43.975z
	 M46.816,43.975c0-0.04,0.06-0.04,0.06,0v0.441c0,0.039-0.06,0.039-0.06,0V43.975z M46.629,43.975c0-0.04,0.06-0.04,0.06,0v0.441
	c0,0.039-0.06,0.039-0.06,0V43.975z M46.443,43.975c0-0.04,0.06-0.04,0.06,0v0.441c0,0.039-0.06,0.039-0.06,0V43.975z
	 M46.256,43.975c0-0.04,0.06-0.04,0.06,0v0.441c0,0.039-0.06,0.039-0.06,0V43.975z M46.069,43.975c0-0.04,0.06-0.04,0.06,0v0.441
	c0,0.039-0.06,0.039-0.06,0V43.975z M45.882,43.975c0-0.04,0.06-0.04,0.06,0v0.441c0,0.039-0.06,0.039-0.06,0V43.975z
	 M45.696,43.975c0-0.04,0.06-0.04,0.06,0v0.441c0,0.039-0.06,0.039-0.06,0V43.975z"/>
</svg>
