<?xml version="1.0" encoding="utf-8"?>
<!-- Generator: Adobe Illustrator 15.1.0, SVG Export Plug-In . SVG Version: 6.00 Build 0)  -->
<!DOCTYPE svg PUBLIC "-//W3C//DTD SVG 1.1//EN" "http://www.w3.org/Graphics/SVG/1.1/DTD/svg11.dtd">
<svg version="1.1" id="Layer_1" xmlns="http://www.w3.org/2000/svg" xmlns:xlink="http://www.w3.org/1999/xlink" x="0px" y="0px"
	 width="100px" height="100px" viewBox="0 0 100 100" enable-background="new 0 0 100 100" xml:space="preserve">
<path display="none" fill="#B3B3B3" d="M59.62,34.204l1.433-10.388h13.219v-4.148H57.435l-2.004,14.537H25.688l8.299,65.009h32.733
	l8.299-65.009H59.62z M31.179,39.108h23.576l-3.362,24.376h-17.1L31.179,39.108z M66.412,63.484H55.586l3.358-24.376h10.58
	L66.412,63.484z"/>
<path display="none" d="M45.314,10.869c0.036,6.301,0.018,23.837-0.181,24.387c-0.316,0.877-0.583,2.011-1.243,2.557
	c-1.583,1.316-5.723,4.433-5.723,9.645v51.541h3.254h17.157h3.254V47.458c0-5.212-4.141-8.329-5.723-9.645
	c-0.658-0.546-0.926-1.68-1.242-2.557c-0.198-0.55-0.217-18.086-0.181-24.387H45.314z"/>
<rect x="8.648" y="93.203" width="84" height="4.733"/>
<path d="M56.128,56.745c0.01-0.133,0.021-0.265,0.021-0.399c0-3.039-2.463-5.503-5.5-5.503c-3.038,0-5.5,2.464-5.5,5.503
	c0,0.135,0.011,0.267,0.02,0.399c-18.311,2.656-32.379,18.411-32.379,37.459h75.719C88.508,75.156,74.439,59.401,56.128,56.745z"/>
</svg>
