<?xml version="1.0" encoding="utf-8"?>
<svg version="1.1" id="Layer_1" xmlns="http://www.w3.org/2000/svg" xmlns:xlink="http://www.w3.org/1999/xlink" x="0px" y="0px"
	 width="129.35px" height="129.351px" viewBox="0 0 129.35 129.351" enable-background="new 0 0 129.35 129.351" preserveAspectRatio="xMaxYMid">
	 <style>
	 #hand{
	 opacity:0.2;
	 }
	 </style>
<path id="hand" d="M50.581,128.104c0.665,0.789,1.646,1.246,2.679,1.246h36c1.012,0,1.975-0.438,2.641-1.201
	c2.289-2.633,13.801-16.072,15.561-22.303c1.379-4.888,1.701-14.734,1.693-23c-0.008-6.43-0.213-11.874-0.268-13.23
	c-0.043-5.932-4.883-10.743-10.824-10.743c-1.459,0-2.848,0.293-4.119,0.818c-1.121-4.781-5.41-8.355-10.529-8.355
	c-1.953,0-3.783,0.527-5.369,1.439c-1.893-3.156-5.338-5.277-9.277-5.277c-1.357,0-2.652,0.262-3.85,0.719v-0.062
	c0.135-0.068,0.264-0.147,0.396-0.219c-0.131,0.045-0.268,0.084-0.396,0.133v-0.064c7.633-3.871,13.135-11.502,13.873-20.658
	c0.068-0.83,0.092-1.654,0.078-2.47C78.596,11.986,68.598,1.143,55.473,0.084C41.463-1.047,29.194,9.393,28.065,23.402
	c-0.052,0.641-0.077,1.277-0.081,1.91c-0.006,9.781,5.592,18.457,13.953,22.693v0.148v14.896v0.15
	c-3.817-4.234-10.193-5.439-15.37-2.539c-4.069,2.281-6.363,6.52-6.371,10.885c0.02,1.976,0.505,3.972,1.511,5.821
	C22.934,80.056,38.327,113.532,50.581,128.104z M33.217,25.166c0.004-0.494,0.022-0.99,0.062-1.49
	C34.176,12.545,43.924,4.25,55.053,5.148c10.469,0.845,18.42,9.522,18.58,19.814c0.018,0.697,0,1.402-0.059,2.113
	c-0.508,6.287-3.844,11.668-8.656,14.998v-0.148v-5.178V36.6l0.762-0.896c2.203-2.59,3.512-5.742,3.783-9.111
	c0.041-0.502,0.055-1.001,0.049-1.498c-0.074-3.693-1.404-7.219-3.832-10.07c-2.785-3.273-6.676-5.266-10.959-5.611
	c-8.865-0.719-16.625,6.014-17.328,14.742c-0.04,0.502-0.054,1.001-0.048,1.498c0.075,3.693,1.404,7.22,3.83,10.072l0.762,0.895
	v0.148v5.143v0.148C36.554,38.327,33.115,32.086,33.217,25.166z M29.989,66.62c2.638-1.479,5.988-0.535,7.467,2.104l4.947,8.824
	c0.946,1.686,3.08,2.285,4.765,1.34c1.21-0.678,1.849-1.969,1.77-3.268V34.008c0-2.477,2.014-4.49,4.489-4.49
	c2.476,0,4.492,2.014,4.492,4.49v32.726c0,1.934,1.566,3.5,3.5,3.5c1.932,0,3.5-1.566,3.5-3.5V66.69
	c0.006-0.092,0.027-0.18,0.027-0.271v-8.247c0-2.107,1.715-3.824,3.822-3.824c2.109,0,3.824,1.717,3.824,3.824v3.838v4.409v3.838
	c0,1.934,1.568,3.5,3.5,3.5c1.934,0,3.5-1.566,3.5-3.5v-3.838V62.01c0-2.107,1.715-3.822,3.822-3.822
	c2.109,0,3.824,1.715,3.824,3.822v7.538v0.709v1.537c0,1.934,1.568,3.5,3.5,3.5c1.934,0,3.5-1.566,3.5-3.5v-1.537v-0.709
	c0-2.109,1.715-3.824,3.824-3.824c2.107,0,3.824,1.715,3.824,3.824c0,0.047,0,0.096,0.002,0.145
	c0.303,7.309,0.682,27.713-1.164,34.252c-0.918,3.248-7.865,12.299-13.07,18.406H54.92c-11.75-14.82-26.743-47.664-26.897-48.004
	c-0.041-0.088-0.085-0.176-0.133-0.262C26.412,71.446,27.353,68.097,29.989,66.62z"/>
</svg>