<?xml version="1.0" encoding="utf-8"?>
<!-- Generator: Adobe Illustrator 15.1.0, SVG Export Plug-In . SVG Version: 6.00 Build 0)  -->
<!DOCTYPE svg PUBLIC "-//W3C//DTD SVG 1.1//EN" "http://www.w3.org/Graphics/SVG/1.1/DTD/svg11.dtd">
<svg version="1.1" id="Layer_1" xmlns="http://www.w3.org/2000/svg" xmlns:xlink="http://www.w3.org/1999/xlink" x="0px" y="0px"
	 width="100px" height="100px" viewBox="0 0 100 100" enable-background="new 0 0 100 100" xml:space="preserve">
<path display="none" fill="#B3B3B3" d="M59.62,34.204l1.433-10.388h13.219v-4.148H57.435l-2.004,14.537H25.688l8.299,65.009h32.733
	l8.299-65.009H59.62z M31.179,39.108h23.576l-3.362,24.376h-17.1L31.179,39.108z M66.412,63.484H55.586l3.358-24.376h10.58
	L66.412,63.484z"/>
<path display="none" d="M45.314,10.869c0.036,6.301,0.018,23.837-0.181,24.387c-0.316,0.877-0.583,2.011-1.243,2.557
	c-1.583,1.316-5.723,4.433-5.723,9.645v51.541h3.254h17.157h3.254V47.458c0-5.212-4.141-8.329-5.723-9.645
	c-0.658-0.546-0.926-1.68-1.242-2.557c-0.198-0.55-0.217-18.086-0.181-24.387H45.314z"/>
<path d="M50.137,41.365h36.607v-6.938H14.657c-0.503,0-0.977,0.125-1.402,0.343c5.364,10.125,21.433,9.925,23.734,10.064
	C44.648,45.295,48.411,43.05,50.137,41.365z"/>
<path d="M42.009,58.631c-1.135-3.802-4.487-4.146-4.487-4.146l-23.542,0.827l18.897,2.065v0.515l-18.693,1.653l18.693,2.271v0.516
	l-18.794,1.549l18.586,1.447v0.826l-19.414,1.858c0,0,17.864,1.756,23.96,1.546c3.066-0.103,4.352-2.068,4.875-3.99h44.653v-6.938
	H42.009z"/>
</svg>
