<?xml version="1.0" encoding="utf-8"?>
<!-- Generator: Adobe Illustrator 15.1.0, SVG Export Plug-In . SVG Version: 6.00 Build 0)  -->
<!DOCTYPE svg PUBLIC "-//W3C//DTD SVG 1.1//EN" "http://www.w3.org/Graphics/SVG/1.1/DTD/svg11.dtd">
<svg version="1.1" id="Layer_1" xmlns="http://www.w3.org/2000/svg" xmlns:xlink="http://www.w3.org/1999/xlink" x="0px" y="0px"
	 width="100px" height="100px" viewBox="0 0 100 100" enable-background="new 0 0 100 100" xml:space="preserve">
<path display="none" fill="#B3B3B3" d="M61.521,20.504c-0.259-0.108-0.549-0.175-0.873-0.2c-0.121-0.01-0.241-0.014-0.365-0.014
	c-0.978,0-1.857,0.376-2.486,0.982c-3.748,3.323-3.843,14.479-4.452,24.6c-0.462,7.659,1.783,11.421,3.469,13.148v36.937
	c0,1.797,1.554,3.257,3.47,3.257c1.914,0,3.469-1.46,3.469-3.257V23.54C63.752,22.154,62.824,20.973,61.521,20.504z"/>
<path display="none" fill="#B3B3B3" d="M47.805,39.921H47.29l-1.653-18.693l-2.271,18.693h-0.517L41.3,21.127l-1.446,18.586h-0.826
	L37.169,20.3c0,0-1.756,17.864-1.546,23.96c0.103,3.066,2.068,4.352,3.991,4.875v46.821c0,1.797,1.553,3.257,3.468,3.257
	c1.917,0,3.47-1.46,3.47-3.257V49.054c3.802-1.135,4.145-4.487,4.145-4.487L49.87,21.024L47.805,39.921z"/>
<path fill="#B3B3B3" d="M59.62,34.204l1.433-10.388h13.219v-4.148H57.435l-2.004,14.537H25.688l8.299,65.009h32.733l8.299-65.009
	H59.62z M31.179,39.108h23.576l-3.362,24.376h-17.1L31.179,39.108z M66.412,63.484H55.586l3.358-24.376h10.58L66.412,63.484z"/>
</svg>
