<svg version="1.1" id="Layer_1" xmlns="http://www.w3.org/2000/svg" xmlns:xlink="http://www.w3.org/1999/xlink" x="0px" y="0px"
	 width="100px" height="100px" viewBox="0 0 100 100" enable-background="new 0 0 100 100" xml:space="preserve">
<path fill="#FFFFFF" d="M70.609,41.456c0-11.382-9.229-20.61-20.611-20.61S29.39,30.073,29.39,41.456
	c0,3.836,1.067,7.416,2.893,10.493h35.435C69.543,48.872,70.609,45.292,70.609,41.456z"/>
<g>
	<path fill="#B3B3B3" d="M66.43,54.713c-0.341,0-1.07,0-1.62,0h-29.62c-0.55,0-1.279,0-1.619,0c-0.341,0-0.461,0.421-0.267,0.936
		l16.344,43.416c0.194,0.515,0.511,0.515,0.705,0l16.345-43.416C66.892,55.134,66.771,54.713,66.43,54.713z"/>
</g>
</svg>
